<svg id="Group_4504" data-name="Group 4504" xmlns="http://www.w3.org/2000/svg" xmlns:xlink="http://www.w3.org/1999/xlink" width="133.778" height="29" viewBox="0 0 133.778 29">
  <defs>
    <clipPath id="clip-path">
      <rect id="Rectangle_1612" data-name="Rectangle 1612" width="133.778" height="29" fill="none"/>
    </clipPath>
  </defs>
  <g id="Group_4503" data-name="Group 4503" clip-path="url(#clip-path)">
    <path id="Path_10683" data-name="Path 10683" d="M450.09,3.231h2.351q.578,0,.579-.431V.492q0-.405-.579-.406H450.09q-.579,0-.579.406V2.8q0,.432.579.431" transform="translate(-376.204 -0.072)" fill="#e92f17"/>
    <path id="Path_10684" data-name="Path 10684" d="M3,23.882H.394q-.507,0-.362-.615L6.325,1.241A.811.811,0,0,1,7.194.626H10.81a.78.78,0,0,1,.868.615l6.293,22.026q.144.615-.4.615H15.006a.63.63,0,0,1-.452-.127.972.972,0,0,1-.2-.488l-1.375-4.7H5.024l-1.375,4.7q-.145.615-.651.615M8.93,4.1,5.747,15.672h6.547L9.074,4.1Z" transform="translate(0 -0.524)" fill="#e92f17"/>
    <path id="Path_10685" data-name="Path 10685" d="M173.542,47.664h-1.628a5.252,5.252,0,0,1-4-1.465,5.772,5.772,0,0,1-1.393-4.141V35.729a5.12,5.12,0,0,1,5.606-5.606h8.1q.651,0,.651.615v17.9a5.475,5.475,0,0,1-1.5,4.105,5.679,5.679,0,0,1-4.141,1.465h-6.8q-.615,0-.615-.579V51.751a.543.543,0,0,1,.615-.615H174.7a2.35,2.35,0,0,0,2.64-2.676V45.711h-.145q-.9,1.953-3.653,1.953m3.8-6.148V33.559q0-.361-.4-.362h-4.3q-2.568,0-2.568,2.676v6q0,2.677,2.568,2.676h1.736q2.965,0,2.966-3.038" transform="translate(-139.368 -25.211)" fill="#e92f17"/>
    <path id="Path_10686" data-name="Path 10686" d="M282.21,48.569h-3.182a5.12,5.12,0,0,1-5.606-5.606V35.729a5.1,5.1,0,0,1,5.606-5.606h3.182a5.678,5.678,0,0,1,4.141,1.465,5.524,5.524,0,0,1,1.5,4.141v7.234a5.535,5.535,0,0,1-1.5,4.123,5.635,5.635,0,0,1-4.141,1.483m-2.676-3.074h2.206a2.318,2.318,0,0,0,2.6-2.64V35.837a2.318,2.318,0,0,0-2.6-2.64h-2.206a2.68,2.68,0,0,0-1.989.633,2.8,2.8,0,0,0-.615,2.007v7.017a2.8,2.8,0,0,0,.615,2.007,2.678,2.678,0,0,0,1.989.633" transform="translate(-228.831 -25.211)" fill="#e92f17"/>
    <path id="Path_10687" data-name="Path 10687" d="M383.654,48.568h-2.278a.543.543,0,0,1-.615-.615V30.737a.544.544,0,0,1,.615-.615h2.278a.544.544,0,0,1,.615.615v1.374h.145a2.835,2.835,0,0,1,1.392-1.447,4.854,4.854,0,0,1,2.3-.543h1.338a.544.544,0,0,1,.615.615v1.881q0,.687-.615.579h-2.17q-3,0-3,3.291V47.953a.543.543,0,0,1-.615.615" transform="translate(-318.666 -25.21)" fill="#e92f17"/>
    <path id="Path_10688" data-name="Path 10688" d="M484.682,7.607h-1.736a.682.682,0,0,1-.488-.13.663.663,0,0,1-.127-.465V5.075a.551.551,0,0,1,.615-.633h1.736a.325.325,0,0,0,.362-.372V.719a.567.567,0,0,1,.651-.633h2.279a.552.552,0,0,1,.615.633V4.07c0,.248.132.372.4.372h3.364a.568.568,0,0,1,.651.633V7.011q0,.6-.651.6h-3.364c-.266,0-.4.124-.4.372v9.568a2.4,2.4,0,0,0,2.713,2.718h1.41a.568.568,0,0,1,.651.633v1.936q0,.6-.651.6h-1.953a5.734,5.734,0,0,1-4.2-1.489,5.624,5.624,0,0,1-1.519-4.207V7.979a.325.325,0,0,0-.362-.372" transform="translate(-403.672 -0.072)" fill="#e92f17"/>
    <path id="Path_10689" data-name="Path 10689" d="M567.5,23.882h-2.278q-.616,0-.615-.562V1.188q0-.562.615-.562H567.5q.615,0,.615.562V8.764h.145q.868-1.753,3.653-1.753h1.592a5.7,5.7,0,0,1,4.051,1.323,4.963,4.963,0,0,1,1.411,3.8V23.319q0,.563-.651.562h-2.279q-.615,0-.615-.562V12.27q0-2.448-2.64-2.448h-1.7q-2.966,0-2.966,2.812V23.319q0,.563-.615.562" transform="translate(-472.533 -0.524)" fill="#e92f17"/>
    <path id="Path_10690" data-name="Path 10690" d="M675.508,48.568H673.23a.543.543,0,0,1-.615-.615V30.737a.544.544,0,0,1,.615-.615h2.278a.544.544,0,0,1,.615.615v1.3h.145a3.978,3.978,0,0,1,3.834-1.917H681.3a4.726,4.726,0,0,1,4.485,2.387,3.938,3.938,0,0,1,1.772-1.772,5.526,5.526,0,0,1,2.568-.615h1.157a5.3,5.3,0,0,1,4.033,1.465,5.776,5.776,0,0,1,1.392,4.141V47.953a.543.543,0,0,1-.615.615h-2.315a.543.543,0,0,1-.615-.615V35.873q0-2.676-2.6-2.676h-1.049q-3,0-3,3.147v11.61q0,.615-.651.615h-2.279a.543.543,0,0,1-.615-.615V35.873q0-2.676-2.6-2.676h-1.266q-2.966,0-2.966,3.074V47.953a.543.543,0,0,1-.615.615" transform="translate(-562.924 -25.21)" fill="#e92f17"/>
    <path id="Path_10691" data-name="Path 10691" d="M452.4,30.123h-2.315q-.579,0-.579.615V47.954a.543.543,0,0,0,.615.615h2.315a.632.632,0,0,0,.452-.127.7.7,0,0,0,.127-.488V30.738a.544.544,0,0,0-.615-.615" transform="translate(-376.204 -25.211)" fill="#e92f17"/>
    <path id="Path_10692" data-name="Path 10692" d="M124.277,1.382v21.4q0,.579.654.578h2.424q.654,0,.654-.578V.034c0-.012,0-.022,0-.034Z" transform="translate(-104.01)" fill="#e92f17"/>
  </g>
</svg>
